<svg viewBox="0 0 32 32" style="border-radius: 4px">
  <g>
    <path d="M5,0 L27,0 C29.7614237,0 32,2.23857625 32,5 L32,27 C32,29.7614237 29.7614237,32 27,32 L5,32 C2.23857625,32 0,29.7614237 0,27 L0,5 C0,2.23857625 2.23857625,0 5,0 Z M12.7045454,8 C10.1221593,8 8,10.1193185 8,12.7045454 L8,19.2954545 C8,21.8778407 10.1193185,24 12.7045454,24 L19.2954545,24 C21.8778407,24 24,21.8806822 24,19.2954545 L24,12.7045454 C24,10.1221593 21.8806822,8 19.2954545,8 L12.7045454,8 Z M12.7045454,9.45454545 L19.2954545,9.45454545 C21.0937498,9.45454545 22.5454545,10.9062502 22.5454545,12.7045454 L22.5454545,19.2954545 C22.5454545,21.0937498 21.0937498,22.5454545 19.2954545,22.5454545 L12.7045454,22.5454545 C10.9062502,22.5454545 9.45454545,21.0937498 9.45454545,19.2954545 L9.45454545,12.7045454 C9.45454545,10.9062502 10.9062502,9.45454545 12.7045454,9.45454545 Z M20.2954545,11.0454545 C19.9289774,11.0454545 19.6363636,11.3380684 19.6363636,11.7045454 C19.6363636,12.0710225 19.9289774,12.3636364 20.2954545,12.3636364 C20.6619316,12.3636364 20.9545454,12.0710225 20.9545454,11.7045454 C20.9545454,11.3380684 20.6619316,11.0454545 20.2954545,11.0454545 Z M16,11.6363636 C13.599432,11.6363636 11.6363636,13.599432 11.6363636,16 C11.6363636,18.400568 13.599432,20.3636364 16,20.3636364 C18.400568,20.3636364 20.3636364,18.400568 20.3636364,16 C20.3636364,13.599432 18.400568,11.6363636 16,11.6363636 Z M16,13 C17.6568542,13 19,14.3431458 19,16 C19,17.6568542 17.6568542,19 16,19 C14.3431458,19 13,17.6568542 13,16 C13,14.3431458 14.3431458,13 16,13 Z" fill="#4285F4"></path>
  </g>
</svg>